<?xml version="1.0" standalone="no"?>
<!DOCTYPE svg PUBLIC "-//W3C//DTD SVG 20010904//EN"
 "http://www.w3.org/TR/2001/REC-SVG-20010904/DTD/svg10.dtd">
<svg version="1.0" xmlns="http://www.w3.org/2000/svg"
 width="80.000000pt" height="80.000000pt" viewBox="0 0 80.000000 80.000000"
 preserveAspectRatio="xMidYMid meet">
<metadata>
Created by potrace 1.16, written by Peter Selinger 2001-2019
</metadata>
<g transform="translate(0.000000,80.000000) scale(0.100000,-0.100000)"
fill="#000000" stroke="none">
<path d="M288 768 c-30 -11 -33 -15 -18 -38 8 -12 3 -16 -23 -20 -44 -7 -48
-40 -9 -80 l29 -29 -47 -40 c-61 -51 -135 -149 -171 -226 -38 -79 -41 -172 -6
-222 50 -74 145 -96 390 -91 206 5 252 16 308 74 30 31 34 41 37 103 5 81 -18
141 -93 246 -45 64 -142 155 -164 155 -7 0 10 -18 38 -40 109 -86 201 -234
208 -334 8 -105 -45 -161 -176 -186 -69 -13 -313 -13 -382 0 -238 45 -240 237
-5 487 78 83 79 84 58 99 -12 8 -27 24 -33 36 -13 25 1 38 43 38 26 0 27 2 16
25 -6 14 -8 28 -4 33 10 9 222 9 232 0 4 -5 2 -19 -4 -33 -11 -23 -10 -25 16
-25 42 0 56 -13 43 -38 -6 -12 -21 -28 -33 -36 -18 -13 -19 -16 -6 -16 20 0
58 46 58 70 0 19 -19 30 -51 30 -16 0 -18 3 -9 19 14 27 14 28 -21 40 -39 14
-184 13 -221 -1z"/>
</g>
</svg>
