<svg version="1.0" xmlns="http://www.w3.org/2000/svg" width="106.667" height="106.667" viewBox="0 0 80 80"><path d="M28.8 3.2c-3 1.1-3.3 1.5-1.8 3.8.8 1.2.3 1.6-2.3 2-4.4.7-4.8 4-.9 8l2.9 2.9-4.7 4C15.9 29 8.5 38.8 4.9 46.5 1.1 54.4.8 63.7 4.3 68.7c5 7.4 14.5 9.6 39 9.1 20.6-.5 25.2-1.6 30.8-7.4 3-3.1 3.4-4.1 3.7-10.3.5-8.1-1.8-14.1-9.3-24.6C64 29.1 54.3 20 52.1 20c-.7 0 1 1.8 3.8 4C66.8 32.6 76 47.4 76.7 57.4c.8 10.5-4.5 16.1-17.6 18.6-6.9 1.3-31.3 1.3-38.2 0-23.8-4.5-24-23.7-.5-48.7 7.8-8.3 7.9-8.4 5.8-9.9-1.2-.8-2.7-2.4-3.3-3.6-1.3-2.5.1-3.8 4.3-3.8 2.6 0 2.7-.2 1.6-2.5-.6-1.4-.8-2.8-.4-3.3 1-.9 22.2-.9 23.2 0 .4.5.2 1.9-.4 3.3-1.1 2.3-1 2.5 1.6 2.5 4.2 0 5.6 1.3 4.3 3.8-.6 1.2-2.1 2.8-3.3 3.6-1.8 1.3-1.9 1.6-.6 1.6 2 0 5.8-4.6 5.8-7 0-1.9-1.9-3-5.1-3-1.6 0-1.8-.3-.9-1.9 1.4-2.7 1.4-2.8-2.1-4-3.9-1.4-18.4-1.3-22.1.1z"/></svg>