<svg version="1.0" xmlns="http://www.w3.org/2000/svg" width="306.667" height="229.333" viewBox="0 0 230 172"><path d="M102 25.7c-9.7.7-25.9 3.6-33.5 6-8.6 2.7-19.6 8.6-23.3 12.6-5.8 6.1-5.7 16.5.1 22.5 3.9 4.1 7.1 5.9 16 9.2l6.7 2.5.3 11c.2 10 .5 11.6 3.4 17.7 7 14.9 20 22.6 41.4 24.6 7.6.7 7.7.7 11 5.1 5.3 6.9 9.5 8.6 21.4 8.6 9.2 0 10.6-.3 16.8-3.2 11.6-5.5 20.6-17.1 24.2-31.1.9-3.4 1.7-11 1.8-16.9l.2-10.8-29.7-.3L129 83v21.1l16.3-.1 16.2-.1-.3 3.3c-.9 10.5-14.6 19.6-32.5 21.4l-6.3.6-2.3-7.8c-3.1-10.7-9.1-23-13.5-28.1-5.5-6.4-11.7-10-23.5-13.9-5.8-2-10.8-3.7-10.9-3.9-.2-.2 1.1-3.1 2.9-6.5 7.4-13.8 22.2-21 43.4-21 21.3.1 36.9 6.7 41.6 17.7 1 2.4 1.9 5.3 1.9 6.4 0 1.8.9 1.9 13.5 1.9 15.5 0 14.9.6 12-10.5-6.9-26.5-40.3-41.2-85.5-37.8zm34.1 3.8c22.6 3.4 39.2 13.7 46.5 29 1.9 3.8 3.4 8.2 3.4 9.7V71h-21.6l-1.2-4.4c-2.7-10.3-16.3-18.5-34.3-20.7-9.6-1.1-21.2-.6-28.4 1.2-12.8 3.4-23.5 11.8-28.3 22l-2.7 6-4-.6c-9.5-1.4-20.9-9.7-22.1-16.1-.9-5.1.2-8.1 5.2-13C59.2 34.7 83 28.4 114 28.1c6.9 0 16.8.6 22.1 1.4zM79.3 80.6c13.1 3.4 23.7 10.8 30 21.1 2.6 4.1 9.7 23.2 9.7 25.9 0 3.3-16.8 1.1-26.5-3.5-11.7-5.5-18.5-14-21.1-26.4-1.6-7.5-1.1-18.7.8-18.7.6 0 3.7.7 7.1 1.6zm106.9 13.9c-.9 21.6-9.3 37.1-24.4 45-6.1 3.3-8.5 3.9-15 4.3-6.4.4-8.4.1-12.2-1.7-4.6-2.3-11-8.6-10.2-10 .3-.4 3.4-1.1 6.8-1.4 12.5-1.2 23.6-6.7 28.9-14.3 2.8-4.2 5.4-12.7 4.4-14.5-.4-.5-7.9-.9-17.1-.9H131V86l27.8.2 27.7.3-.3 8z"/></svg>